<svg width="84" height="27" viewBox="0 0 84 27" fill="none" xmlns="http://www.w3.org/2000/svg">
<path d="M73.1271 12.638H70.5431V24.946H73.3311C75.8131 24.946 77.5131 23.042 77.5131 18.996C77.5131 14.882 75.7451 12.638 73.1271 12.638ZM71.0191 11.584C74.0451 11.584 76.1191 10.36 76.1191 6.92605C76.1191 3.52605 74.0451 2.30205 71.0191 2.30205H70.5431V11.584H71.0191ZM63.1311 26V25.286C64.1851 25.286 64.5591 24.946 64.5591 24.232V3.01605C64.5591 2.30205 64.1851 1.96205 63.1311 1.96205V1.24805H71.0191C77.6831 1.24805 82.1031 3.08405 82.1031 6.92605C82.1031 9.81605 79.7231 11.278 75.7111 11.992C80.4371 11.992 83.5311 14.508 83.5311 18.69C83.5311 23.45 79.4511 26 73.3991 26H63.1311Z" fill="#343433"/>
<path d="M51.4686 26.34C45.9946 26.34 41.7106 22.974 41.7106 17.568V3.01605C41.7106 2.30205 41.3366 1.96205 40.2826 1.96205V1.24805H49.8366V1.96205C48.7826 1.96205 47.6946 2.50605 47.6946 3.01605V18.214C47.6946 22.396 49.9726 24.946 53.3386 24.946C56.8066 24.946 59.4926 22.192 59.4926 18.214V3.01605C59.4926 2.30205 58.4046 1.96205 57.3506 1.96205V1.24805H62.3146V1.96205C61.2606 1.96205 60.8866 2.50605 60.8866 3.01605V17.5C60.8866 22.94 56.9086 26.34 51.4686 26.34Z" fill="#343433"/>
<path d="M21.6612 26V25.286C22.5452 25.286 23.0552 25.082 23.0552 24.572V3.01605C23.0552 2.30205 22.6812 1.96205 21.6272 1.96205V1.24805H30.4672V1.96205C29.5832 1.96205 29.0392 2.20005 29.0392 2.71005V24.946H33.3912C36.3832 24.946 39.0352 22.974 39.4772 19.438H40.1912L39.4432 26H21.6612Z" fill="#343433"/>
<path d="M20.536 18.452H21.216C20.162 23.144 16.524 26.34 11.288 26.34C4.45401 26.34 0.544006 20.934 0.544006 13.59C0.544006 6.21196 4.55601 0.907959 11.39 0.907959C14.008 0.907959 17 1.68996 19.04 2.87996L19.244 9.47596H17.85C16.626 6.24596 14.722 1.96196 11.356 1.96196C7.48001 1.96196 6.46001 7.67396 6.46001 11.312C6.46001 16.616 8.63601 22.26 13.872 22.26C16.762 22.26 19.006 20.56 20.536 18.452Z" fill="#343433"/>
</svg>
